<svg width="19" height="18" viewBox="0 0 19 18" fill="none" xmlns="http://www.w3.org/2000/svg">
<path d="M10.2941 18H1.67315C1.12431 18 0.679688 17.5551 0.679688 17.0065V0.993454C0.679688 0.444694 1.12438 0 1.67315 0H17.6863C18.2349 0 18.6797 0.444694 18.6797 0.993454V17.0065C18.6797 17.5552 18.2349 18 17.6863 18H13.0994V11.0294H15.4391L15.7895 8.31284H13.0994V6.57849C13.0994 5.79198 13.3178 5.256 14.4457 5.256L15.8842 5.25537V2.82566C15.6354 2.79255 14.7815 2.71859 13.788 2.71859C11.714 2.71859 10.2941 3.98457 10.2941 6.30945V8.31284H7.94836V11.0294H10.2941V18Z" fill="#00AEEF"/>
</svg>
