<svg width="272" height="40" viewBox="0 0 272 40" fill="none" xmlns="http://www.w3.org/2000/svg">
<path d="M67.679 17.9313C68.0782 17.4975 68.2902 16.9899 68.6253 16.5463C69.966 14.7621 71.834 14.4023 73.8695 14.7227C76.3044 15.1071 77.7682 16.7977 78.1773 19.474C78.2808 20.1541 78.3251 20.8343 78.3251 21.5194C78.3251 25.0731 78.3153 28.6267 78.335 32.1803C78.335 32.6978 78.2019 32.8605 77.6795 32.8457C76.4325 32.8063 75.1855 32.8112 73.9386 32.8457C73.4506 32.8605 73.3077 32.7225 73.3077 32.2247C73.3274 28.8386 73.3175 25.4476 73.3225 22.0616C73.3225 21.4159 73.2584 20.7752 73.0563 20.1591C72.7556 19.2423 72.179 18.8185 71.2129 18.7593C70.3701 18.71 69.547 18.779 68.8225 19.2719C68.0881 19.7697 67.684 20.4351 67.684 21.3568C67.6987 24.9498 67.679 28.5478 67.7037 32.1409C67.7037 32.688 67.5657 32.8654 67.0087 32.8457C65.742 32.8063 64.4704 32.8211 63.2037 32.8408C62.7848 32.8457 62.6172 32.7323 62.6172 32.2838C62.627 24.3042 62.627 16.3245 62.6172 8.33991C62.6172 7.88646 62.7798 7.78789 63.1939 7.79775C64.5049 7.82239 65.816 7.82732 67.1221 7.79775C67.61 7.78296 67.7037 7.95547 67.6987 8.40398C67.679 11.3563 67.6889 14.3086 67.6889 17.256C67.6889 17.4828 67.6889 17.7095 67.6889 17.9411L67.679 17.9313Z" fill="#00AEEF"/>
<path d="M107.17 18.011C107.476 17.3604 107.806 16.7196 108.294 16.1824C109.812 14.5165 111.744 14.3883 113.75 14.827C115.746 15.2607 116.806 16.7147 117.334 18.5925C117.6 19.5339 117.718 20.5 117.718 21.4808C117.718 25.0344 117.703 28.5881 117.728 32.1368C117.728 32.6839 117.59 32.8613 117.033 32.8416C115.806 32.8022 114.578 32.7972 113.356 32.8416C112.745 32.8662 112.641 32.6346 112.641 32.0875C112.656 28.4944 112.641 24.9014 112.627 21.3034C112.627 20.776 112.493 20.2831 112.277 19.8001C112.045 19.2875 111.656 18.9523 111.128 18.8341C110.172 18.6221 109.221 18.6714 108.343 19.1495C107.417 19.6572 107.013 20.4704 107.013 21.5104C107.013 25.0443 107.003 28.5733 107.027 32.1072C107.027 32.6789 106.885 32.8515 106.303 32.8317C105.036 32.7874 103.77 32.8071 102.498 32.8268C102.123 32.8317 101.995 32.7233 102 32.3339C102.01 26.725 102.01 21.1161 102 15.5071C102 15.1227 102.109 15.0093 102.493 15.0143C103.824 15.034 105.155 15.0438 106.485 15.0143C106.949 15.0044 107.037 15.1818 107.023 15.5959C106.998 16.3795 107.013 17.1632 107.013 17.9469C107.062 17.9666 107.116 17.9814 107.165 18.0011L107.17 18.011Z" fill="#00AEEF"/>
<path d="M248.388 24.1175C248.432 24.7928 248.338 25.6011 248.467 26.4094C248.703 27.957 249.447 28.8984 250.699 29.1399C252.321 29.4504 253.578 28.8984 254.347 27.543C254.692 26.9319 255.188 26.7676 255.835 27.0501C256.614 27.3902 257.393 27.7402 258.181 28.0556C258.575 28.2133 258.659 28.3957 258.497 28.7999C257.506 31.279 255.663 32.6788 253.06 33.1027C251.241 33.3984 249.452 33.2456 247.757 32.4915C245.238 31.3727 243.962 29.2977 243.434 26.7002C242.951 24.3196 243.045 21.9637 243.858 19.6471C244.878 16.7392 247.377 14.8465 250.453 14.6691C252.503 14.5508 254.485 14.7332 256.205 16.0146C257.21 16.7638 257.945 17.72 258.428 18.8783C258.566 19.2085 258.492 19.3514 258.181 19.4796C257.107 19.9232 256.037 20.3766 254.982 20.8596C254.608 21.0321 254.475 20.9779 254.322 20.5787C253.888 19.4451 253.09 18.7304 251.823 18.6417C250.62 18.5579 249.6 18.8585 248.95 19.9675C248.536 20.6723 248.427 21.4461 248.398 22.2397C248.373 22.8213 248.398 23.4029 248.398 24.1126L248.388 24.1175Z" fill="#00AEEF"/>
<path d="M267.726 24.0139C267.726 25.4284 267.746 26.838 267.716 28.2526C267.707 28.7208 267.805 28.9229 268.328 28.8884C269.052 28.8391 269.782 28.8884 270.511 28.8687C270.856 28.8588 270.989 28.9623 270.979 29.3221C270.96 30.3375 270.969 31.3577 270.974 32.378C270.974 32.6244 270.969 32.8413 270.629 32.8314C269.2 32.7969 267.761 32.9497 266.346 32.6392C264.079 32.1414 262.773 30.6085 262.733 28.2822C262.689 25.4383 262.699 22.5895 262.724 19.7456C262.729 19.164 262.605 18.9274 261.979 18.9717C261.427 19.0112 260.708 19.2182 260.348 18.883C259.954 18.5183 260.249 17.7839 260.215 17.2122C260.185 16.6749 260.244 16.1278 260.2 15.5906C260.161 15.0928 260.368 14.9794 260.806 15.0189C261.117 15.0484 261.432 15.0386 261.743 15.0189C262.536 14.9696 262.945 14.6196 263.118 13.831C263.335 12.8256 263.207 11.8004 263.207 10.79C263.207 10.3316 263.315 10.1739 263.793 10.1887C264.892 10.2232 265.996 10.2232 267.095 10.1887C267.574 10.1739 267.751 10.2922 267.736 10.8048C267.697 12.0271 267.741 13.2544 267.716 14.4816C267.707 14.9252 267.85 15.0534 268.283 15.0386C269.092 15.009 269.905 15.0534 270.713 15.0189C271.137 15.0041 271.241 15.1618 271.231 15.5561C271.206 16.532 271.211 17.5079 271.231 18.4838C271.241 18.8584 271.122 19.0013 270.738 18.9865C269.949 18.9619 269.156 19.0112 268.367 18.9668C267.83 18.9372 267.707 19.1344 267.716 19.6421C267.746 21.096 267.726 22.55 267.726 24.004V24.0139Z" fill="#00AEEF"/>
<path d="M165.107 18.8003C165.206 18.5194 165.294 18.2335 165.398 17.9526C166.226 15.7396 168.074 14.882 170.292 15.0298C170.548 15.0446 170.603 15.1728 170.603 15.3896C170.603 16.7007 170.593 18.0068 170.603 19.3179C170.603 19.7122 170.381 19.7417 170.075 19.7417C169.119 19.7417 168.168 19.722 167.216 19.8945C165.679 20.1705 165.008 20.9197 165.003 22.4871C164.994 25.7055 164.989 28.9289 165.013 32.1474C165.013 32.6945 164.865 32.867 164.313 32.8473C163.047 32.8079 161.78 32.8227 160.508 32.8473C160.085 32.8522 159.922 32.7389 159.922 32.2854C159.937 26.6962 159.932 21.107 159.922 15.5227C159.922 15.1333 160.055 15.0298 160.425 15.0348C161.795 15.0545 163.17 15.0545 164.54 15.0348C164.9 15.0348 165.003 15.1531 164.999 15.503C164.979 16.5972 164.994 17.6914 164.994 18.7856L165.092 18.8053L165.107 18.8003Z" fill="#00AEEF"/>
<path d="M216.822 18.7849C217.192 18.0653 217.433 17.3309 217.921 16.7C219.001 15.3052 220.474 14.9454 222.13 15.0341C222.347 15.044 222.421 15.1376 222.421 15.3397C222.421 16.6902 222.416 18.0407 222.421 19.3912C222.421 19.7953 222.155 19.7312 221.909 19.7362C220.977 19.7559 220.041 19.7066 219.114 19.884C217.483 20.1945 216.827 20.9437 216.822 22.6195C216.812 25.7985 216.802 28.9776 216.832 32.1616C216.837 32.7234 216.674 32.8664 216.132 32.8467C214.865 32.8072 213.594 32.822 212.327 32.8467C211.913 32.8516 211.805 32.7185 211.805 32.3144C211.819 26.7251 211.815 21.131 211.805 15.5418C211.805 15.182 211.879 15.0292 212.283 15.0341C213.633 15.0588 214.989 15.0538 216.339 15.0341C216.733 15.0292 216.832 15.1672 216.827 15.5369C216.807 16.6212 216.822 17.7055 216.822 18.7898V18.7849Z" fill="#00AEEF"/>
<path d="M202.119 23.9552C202.119 21.1901 202.129 18.43 202.109 15.665C202.109 15.1968 202.198 15.0095 202.721 15.0242C204.027 15.0637 205.338 15.0489 206.649 15.0292C207.038 15.0242 207.196 15.108 207.196 15.5368C207.181 21.126 207.181 26.7153 207.196 32.3045C207.196 32.7185 207.053 32.8417 206.654 32.8368C205.323 32.822 203.992 32.8121 202.661 32.8368C202.193 32.8466 202.114 32.6396 202.114 32.2355C202.124 29.4704 202.119 26.7103 202.119 23.9453V23.9552Z" fill="#00AEEF"/>
<path d="M207.569 10.3466C207.742 12.2097 206.49 13.2102 204.637 13.1757C202.601 13.1363 201.719 12.2836 201.719 10.248C201.719 8.3751 202.675 7.44849 204.671 7.47314C206.234 7.49778 207.683 8.00544 207.569 10.3466Z" fill="#00AEEF"/>
<path d="M138.556 33.2358C138.398 31.2298 137.127 29.7561 135.175 29.2435C134.288 29.0069 133.381 28.8985 132.464 28.8985C130.719 28.8936 128.97 28.8985 127.225 28.8985C126.83 28.8985 126.436 28.8788 126.057 28.7556C125.317 28.5141 124.997 27.8635 125.234 27.0552C125.431 26.3799 125.82 26.2025 126.619 26.3306C128.713 26.6609 130.803 26.6954 132.839 26.0103C135.022 25.2759 136.363 23.7677 136.629 21.4512C136.865 19.386 136.392 17.5229 134.652 16.1725C134.352 15.9408 134.026 15.7437 133.686 15.5169C133.938 15.3346 134.15 15.4036 134.347 15.4036C135.264 15.3937 136.175 15.3937 137.092 15.4036C137.373 15.4036 137.57 15.3839 137.565 15.0142C137.551 14.0186 137.555 13.0181 137.565 12.0224C137.565 11.7563 137.457 11.6528 137.196 11.6577C136.175 11.6725 135.155 11.6232 134.14 11.6922C132.903 11.776 132.144 12.6237 132.085 13.8609C132.075 14.0482 132.06 14.2355 132.075 14.4227C132.109 14.8368 131.996 14.9403 131.542 14.8614C129.581 14.5213 127.609 14.5115 125.677 15.0586C123.558 15.6549 122.069 16.966 121.616 19.1741C121.167 21.3427 121.488 23.3537 123.282 24.9062C123.671 25.2414 124.139 25.4582 124.662 25.8033C123.932 26.025 123.292 26.1877 122.735 26.5475C121.616 27.2622 121.162 28.2824 121.36 29.5836C121.542 30.7714 122.193 31.5945 123.351 31.9888C123.469 32.0283 123.587 32.0628 123.706 32.1071C123.785 32.1367 123.844 32.1909 123.844 32.2895C123.844 32.4177 123.775 32.4719 123.656 32.4916C123.513 32.5162 123.371 32.5409 123.228 32.5754C121.621 33.0042 120.714 33.9357 120.601 35.2813C120.443 37.1246 121.113 38.3026 122.749 39.0123C123.183 39.1996 123.642 39.3573 124.1 39.4806C126.274 40.0622 128.501 40.0424 130.719 39.9537C132.252 39.8897 133.78 39.6826 135.229 39.1109C136.846 38.4702 138.019 37.4203 138.438 35.6608C138.63 34.8623 138.62 34.0491 138.556 33.2457V33.2358ZM126.111 20.4161C126.219 18.8586 126.993 18.0996 128.565 18.0109C128.733 18.001 128.896 17.9961 128.984 17.9912C129.561 18.001 130.059 18.001 130.532 18.1834C131.404 18.5284 131.907 19.1544 131.961 20.1056C131.976 20.352 131.976 20.6034 131.971 20.8499C131.947 22.0623 131.321 22.8559 130.138 23.0924C129.423 23.2354 128.689 23.2403 127.974 23.0826C126.663 22.7918 126.012 21.8356 126.111 20.4112V20.4161ZM132.676 36.3409C132.321 36.4494 131.951 36.5627 131.587 36.5726C129.783 36.6219 127.974 36.7747 126.18 36.474C124.627 36.2128 124.051 35.0841 124.696 33.7435C124.879 33.364 125.115 33.1865 125.559 33.1964C126.619 33.226 127.678 33.2063 128.738 33.2063C128.738 33.2161 128.738 33.226 128.738 33.2358C129.857 33.2358 130.981 33.1964 132.099 33.2457C133.332 33.3048 133.908 33.916 133.844 34.9609C133.8 35.6066 133.391 36.1142 132.676 36.336V36.3409Z" fill="#00AEEF"/>
<path d="M196.94 7.79293C195.649 7.81264 194.363 7.82743 193.071 7.788C192.564 7.77321 192.455 7.94079 192.46 8.41888C192.48 11.3909 192.47 14.363 192.465 17.335C192.465 17.5272 192.529 17.7392 192.411 17.9314C192.189 17.8722 192.224 17.6652 192.174 17.5272C191.874 16.7436 191.371 16.1275 190.696 15.6444C187.645 13.4511 183.096 14.8066 181.651 18.3947C180.439 21.4012 180.498 24.5211 181.085 27.646C181.37 29.164 181.996 30.5441 183.12 31.6383C185.392 33.8464 190.686 34.2012 192.475 29.9576C192.475 30.756 192.495 31.5545 192.465 32.3529C192.45 32.7423 192.593 32.8507 192.968 32.8458C194.299 32.8261 195.629 32.8261 196.96 32.8458C197.369 32.8507 197.488 32.7226 197.488 32.3086C197.478 24.3092 197.478 16.3049 197.488 8.30552C197.488 7.87179 197.325 7.79293 196.94 7.79786V7.79293ZM189.72 29.1C187.64 29.3612 186.004 27.9072 185.974 25.8174C185.954 24.5507 185.939 23.284 185.974 22.0173C186.013 20.6767 186.56 19.5727 187.842 19.0256C189.133 18.4785 190.41 18.6214 191.563 19.4445C192.194 19.898 192.46 20.5683 192.465 21.3421C192.47 22.2145 192.465 23.0869 192.465 23.9593C192.465 24.6641 192.431 25.3738 192.47 26.0786C192.583 28.1142 191.292 28.9077 189.71 29.1049L189.72 29.1Z" fill="#00AEEF"/>
<path d="M156.283 28.8789C156.095 28.8887 155.903 28.8592 155.721 28.8838C155.164 28.9627 154.986 28.7705 154.986 28.1839C154.976 25.4879 155.134 22.782 154.907 20.0909C154.715 17.8089 153.577 16.1627 151.413 15.2903C149.668 14.5855 147.84 14.5658 146.011 14.6939C143.763 14.8516 141.915 15.798 140.52 17.6068C140.279 17.9223 140.259 18.1095 140.57 18.3757C141.329 19.0214 142.083 19.6769 142.802 20.3669C143.142 20.6922 143.3 20.6281 143.561 20.2831C144.69 18.7946 146.243 18.4053 148.002 18.6911C148.811 18.8193 149.387 19.2924 149.708 20.0761C149.998 20.7809 149.915 21.5055 149.924 22.2251C149.924 22.5504 149.683 22.506 149.481 22.506C148.608 22.506 147.736 22.506 146.864 22.506C145.331 22.5011 143.842 22.7229 142.443 23.3833C139.505 24.7634 138.603 28.6177 140.486 31.2743C142.127 33.5908 146.533 33.7534 148.658 32.2107C149.501 31.5946 149.988 30.7567 150.289 29.7365C150.398 29.8006 150.427 29.8104 150.432 29.8252C150.486 29.978 150.531 30.1357 150.585 30.2934C150.999 31.5651 151.758 32.4917 153.133 32.748C154.163 32.9402 155.208 32.812 156.243 32.8416C156.534 32.8515 156.647 32.7184 156.647 32.4276C156.637 31.3679 156.637 30.3082 156.647 29.2485C156.647 28.9824 156.549 28.869 156.283 28.8838V28.8789ZM148.87 29.2485C147.864 29.7759 146.795 29.8055 145.73 29.495C145.055 29.2978 144.685 28.805 144.646 28.0656C144.547 26.1681 145.193 25.4485 147.1 25.3795C147.45 25.3696 147.805 25.3795 148.185 25.3795C148.742 25.5224 149.653 24.9802 149.88 25.6456C150.412 27.1883 149.89 28.7113 148.87 29.2485Z" fill="#00AEEF"/>
<path d="M98.654 29.8493C98.654 28.8833 98.654 28.8438 97.7176 28.8931C97.136 28.9227 96.998 28.7354 97.0029 28.1735C97.0325 25.6598 97.0325 23.1462 97.0128 20.6325C96.9931 17.9118 95.5144 15.9058 92.9219 15.1024C90.9356 14.4913 88.9148 14.5061 86.8842 14.8659C85.0704 15.1862 83.7002 16.2163 82.5616 17.6013C82.3694 17.833 82.2018 18.0301 82.5469 18.316C83.3305 18.9666 84.0797 19.6517 84.8338 20.3368C85.1295 20.6079 85.3168 20.6522 85.6027 20.2875C86.549 19.08 87.7861 18.5082 89.3535 18.6019C91.0391 18.7054 91.9411 19.5679 92.015 21.2585C92.0249 21.4458 91.9904 21.638 92.0199 21.8203C92.1086 22.3724 91.8869 22.5153 91.3398 22.5104C89.6591 22.5005 87.9784 22.4069 86.3124 22.7568C83.4784 23.3532 81.9357 24.8072 81.6301 27.4194C81.3787 29.5634 82.1969 31.6187 84.1684 32.6045C87.3672 34.2014 90.9257 32.9692 92.4389 29.6374C92.5375 29.9429 92.6015 30.1352 92.6607 30.3225C93.1388 31.7863 94.1097 32.6833 95.6771 32.8016C96.5445 32.8657 97.4219 32.8115 98.2942 32.8263C98.6146 32.8263 98.6639 32.6587 98.6639 32.3925C98.654 31.5399 98.6639 30.6872 98.6639 29.8394L98.654 29.8493ZM89.0085 29.6571C88.6782 29.662 88.3381 29.6571 88.0178 29.5782C87.1602 29.3761 86.7018 28.8044 86.6624 27.9419C86.6032 26.621 86.9187 25.9901 87.8108 25.6352C88.7078 25.2803 89.6541 25.3838 90.5857 25.369C90.6251 25.369 90.6695 25.369 90.7089 25.369C91.5796 25.369 92.015 25.8011 92.015 26.6653C92.1875 28.696 91.2806 29.6176 89.0085 29.6521V29.6571Z" fill="#00AEEF"/>
<path d="M240.639 21.8166C240.234 19.1353 239.135 16.9075 236.651 15.557C234.995 14.6551 233.196 14.5023 231.377 14.6896C228.341 15.005 226.104 16.5231 224.97 19.4113C223.886 22.1764 223.876 25.0104 224.763 27.8296C225.581 30.4222 227.346 32.1029 229.948 32.8471C232.102 33.4632 234.261 33.3301 236.39 32.6697C237.701 32.2655 238.859 31.5952 239.835 30.6193C240.072 30.3827 240.161 30.2152 239.894 29.9047C239.239 29.1506 238.618 28.3718 238.026 27.5734C237.736 27.179 237.548 27.1495 237.193 27.5191C236.01 28.7464 234.576 29.3674 232.831 29.2541C230.747 29.1161 229.406 27.7705 229.381 25.7448C229.376 25.3308 229.505 25.2125 229.909 25.2125C231.614 25.2322 233.319 25.2223 235.025 25.2223C236.75 25.2223 238.475 25.2075 240.2 25.2322C240.634 25.2371 240.777 25.1139 240.762 24.6752C240.727 23.724 240.772 22.7678 240.629 21.8166H240.639ZM234.655 22.2552C233.911 22.2552 233.162 22.2552 232.417 22.2552C231.589 22.2552 230.756 22.2306 229.928 22.2651C229.475 22.2848 229.376 22.1074 229.386 21.6884C229.436 19.4409 231.097 18.0411 233.314 18.4108C234.507 18.6079 235.38 19.7218 235.518 21.2251C235.518 21.2645 235.518 21.3089 235.523 21.3483C235.559 21.9529 235.27 22.2552 234.655 22.2552Z" fill="#00AEEF"/>
<path d="M30.7028 21.0718C29.5692 20.1994 27.9181 19.6523 26.0797 19.6523C24.2412 19.6523 22.5901 20.1994 21.4565 21.0718C20.0419 22.1611 21.1706 23.8812 23.2998 23.8812H28.8595C30.9887 23.8812 32.1174 22.1611 30.7028 21.0718Z" fill="#00AEEF"/>
<path d="M49.7608 7.65992C35.5906 -2.56233 16.5705 -2.55248 2.41016 7.68456C0.897035 8.77874 0 10.5432 0 12.4211V33.7478C0 35.7637 1.61663 37.4001 3.60785 37.4001H48.5877C50.5888 37.4001 52.2104 35.7588 52.2104 33.7331V12.4753C52.2104 10.563 51.2985 8.76889 49.7608 7.65992ZM48.1983 24.4325C48.1983 25.4872 47.3407 26.3448 46.286 26.3448H42.2247C42.2444 26.4533 42.2543 26.5666 42.2543 26.68C42.2543 27.7446 41.3917 28.6071 40.3271 28.6071C39.2625 28.6071 38.4 27.7446 38.4 26.68C38.4 26.5666 38.4098 26.4533 38.4295 26.3448H34.9696C34.0282 30.3815 30.4055 33.393 26.0781 33.393C21.7506 33.393 18.128 30.3815 17.1866 26.3448H13.7414C13.7611 26.4533 13.771 26.5666 13.771 26.68C13.771 27.7446 12.9084 28.6071 11.8438 28.6071C10.7792 28.6071 9.91667 27.7446 9.91667 26.68C9.91667 26.5666 9.92652 26.4533 9.94624 26.3448H5.93423C4.87947 26.3448 4.02187 25.4872 4.02187 24.4325V24.4029C4.02187 23.3482 4.87947 22.4906 5.93423 22.4906H17.1225C17.8372 18.8679 20.6959 16.0191 24.3234 15.3143V11.7163C24.3234 10.6517 25.186 9.78914 26.2506 9.78914C27.3152 9.78914 28.1777 10.6517 28.1777 11.7163V15.3882C31.6377 16.2015 34.3436 18.9862 35.0336 22.4906H46.2811C47.3358 22.4906 48.1934 23.3482 48.1934 24.4029V24.4325H48.1983Z" fill="#00AEEF"/>
</svg>
