<svg width="25" height="24" viewBox="0 0 25 24" fill="none" xmlns="http://www.w3.org/2000/svg">
<path fill-rule="evenodd" clip-rule="evenodd" d="M19.9068 15.26L17.3668 14.97C16.7568 14.9 16.1568 15.11 15.7268 15.54L13.8868 17.38C11.0568 15.94 8.7368 13.63 7.2968 10.79L9.1468 8.94001C9.5768 8.51001 9.7868 7.91001 9.7168 7.30001L9.4268 4.78001C9.3068 3.77001 8.4568 3.01001 7.4368 3.01001H5.7068C4.5768 3.01001 3.6368 3.95001 3.7068 5.08001C4.2368 13.62 11.0668 20.44 19.5968 20.97C20.7268 21.04 21.6668 20.1 21.6668 18.97V17.24C21.6768 16.23 20.9168 15.38 19.9068 15.26Z" fill="#00AEEF"/>
</svg>
