<svg width="21" height="18" viewBox="0 0 21 18" fill="none" xmlns="http://www.w3.org/2000/svg">
<path fill-rule="evenodd" clip-rule="evenodd" d="M5.67969 0H15.6797C16.2297 0 16.6797 0.45 16.6797 1V3C16.6797 3.55 16.2297 4 15.6797 4H5.67969C5.12969 4 4.67969 3.55 4.67969 3V1C4.67969 0.45 5.12969 0 5.67969 0ZM3.67969 5H17.6797C19.3397 5 20.6797 6.34 20.6797 8V12C20.6797 13.1 19.7797 14 18.6797 14H16.6797V16C16.6797 17.1 15.7797 18 14.6797 18H6.67969C5.57969 18 4.67969 17.1 4.67969 16V14H2.67969C1.57969 14 0.679688 13.1 0.679688 12V8C0.679688 6.34 2.01969 5 3.67969 5ZM7.67969 16H13.6797C14.2297 16 14.6797 15.55 14.6797 15V11H6.67969V15C6.67969 15.55 7.12969 16 7.67969 16ZM17.6797 9C17.1297 9 16.6797 8.55 16.6797 8C16.6797 7.45 17.1297 7 17.6797 7C18.2297 7 18.6797 7.45 18.6797 8C18.6797 8.55 18.2297 9 17.6797 9Z" fill="#00AEEF"/>
</svg>
