<svg width="19" height="15" viewBox="0 0 19 15" fill="none" xmlns="http://www.w3.org/2000/svg">
<path d="M18.6797 1.77573C18.0183 2.07692 17.3062 2.28061 16.5592 2.37161C17.3221 1.90358 17.9074 1.16143 18.1831 0.277356C17.4689 0.710726 16.6797 1.026 15.8366 1.19502C15.1646 0.459372 14.2043 0 13.1414 0C11.1034 0 9.44989 1.69556 9.44989 3.78657C9.44989 4.08342 9.48159 4.37161 9.54498 4.64897C6.47578 4.49079 3.75523 2.98483 1.93272 0.691224C1.61471 1.25244 1.43299 1.90358 1.43299 2.59697C1.43299 3.91008 2.08486 5.06934 3.07588 5.74865C2.47155 5.73023 1.90103 5.55796 1.40235 5.27627V5.32286C1.40235 7.15818 2.67546 8.68906 4.3659 9.03575C4.05634 9.12459 3.72987 9.16901 3.39284 9.16901C3.15512 9.16901 2.92269 9.14626 2.69765 9.10184C3.1678 10.6056 4.53072 11.701 6.1472 11.7302C4.8836 12.7465 3.29036 13.3521 1.56083 13.3521C1.26289 13.3521 0.968118 13.3348 0.679688 13.3001C2.31413 14.3727 4.25602 15 6.34054 15C13.134 15 16.8477 9.23077 16.8477 4.22644C16.8477 4.06176 16.8445 3.89707 16.8382 3.73564C17.5598 3.20152 18.1863 2.53521 18.6797 1.77573Z" fill="#00AEEF"/>
</svg>
