<svg width="19" height="13" viewBox="0 0 19 13" fill="none" xmlns="http://www.w3.org/2000/svg">
<path fill-rule="evenodd" clip-rule="evenodd" d="M17.7842 0.969787C18.3236 1.53063 18.4997 2.80424 18.4997 2.80424C18.4997 2.80424 18.6797 4.30022 18.6797 5.79562V7.19803C18.6797 8.69401 18.4997 10.1894 18.4997 10.1894C18.4997 10.1894 18.3236 11.463 17.7842 12.0239C17.1675 12.6873 16.4836 12.7559 16.0971 12.7946C16.0546 12.7989 16.0156 12.8028 15.9808 12.8071C13.4619 12.9942 9.67969 13 9.67969 13C9.67969 13 4.99969 12.9561 3.55969 12.814C3.49146 12.8009 3.40876 12.7907 3.3151 12.7792C2.85896 12.723 2.14304 12.6348 1.57463 12.0239C1.03519 11.463 0.859688 10.1894 0.859688 10.1894C0.859688 10.1894 0.679688 8.69401 0.679688 7.19803V5.79562C0.679688 4.30022 0.859688 2.80424 0.859688 2.80424C0.859688 2.80424 1.03519 1.53063 1.57463 0.969787C2.19273 0.305384 2.87723 0.237575 3.2638 0.19928C3.30571 0.195128 3.34412 0.191323 3.37856 0.187142C5.89744 0 9.67575 0 9.67575 0H9.68363C9.68363 0 13.4619 0 15.9808 0.187142C16.0153 0.191329 16.0537 0.195139 16.0956 0.199298C16.4819 0.237597 17.1667 0.305492 17.7842 0.969787ZM7.82062 3.70414L7.82119 8.89732L12.684 6.30968L7.82062 3.70414Z" fill="#00AEEF"/>
</svg>
